<?xml version="1.0" encoding="UTF-8"?>
<svg width="1869px" height="1221px" viewBox="0 0 1869 1221" version="1.1" xmlns="http://www.w3.org/2000/svg" xmlns:xlink="http://www.w3.org/1999/xlink">
    <title>eventravel_FullLogo</title>
    <defs>
        <path d="M1270.59296,0.00138620795 C1270.53161,0.460312215 1270.5,0.927862497 1270.5,1.40230286 L1270.5,18.2023029 C1270.5,24.3878921 1275.87258,29.4023029 1282.5,29.4023029 C1289.12742,29.4023029 1294.5,24.3878921 1294.5,18.2023029 L1294.5,1.40230286 C1294.5,0.927862497 1294.46839,0.460312215 1294.40704,0.00138620795 L1425,0.00230285663 C1425,30.9302488 1450.07205,56.0023029 1481,56.0023029 L1485,56.0023029 L1485,162.402303 C1435.51529,180.876596 1410.37637,235.968256 1428.85067,285.45297 C1438.44882,311.162299 1458.62235,331.496949 1484.22258,341.308218 L1485,341.602303 L1485,448.002303 L1481,448.002303 C1450.38133,448.002303 1425.50203,472.575423 1425.0075,503.07624 L1425,504.002303 L1294.499,504.001401 L1294.5,488.602303 C1294.5,482.416714 1289.12742,477.402303 1282.5,477.402303 C1275.87258,477.402303 1270.5,482.416714 1270.5,488.602303 L1270.499,504.001401 L214.5,504.001401 L214.5,488.602303 C214.5,482.416714 209.127417,477.402303 202.5,477.402303 C195.872583,477.402303 190.5,482.416714 190.5,488.602303 L190.5,488.602303 L190.5,504.001401 L60,504.002303 L59.9924976,503.07624 C59.4979733,472.575423 34.6186665,448.002303 4,448.002303 L4,448.002303 L-4.54747351e-13,448.002303 L-4.54747351e-13,341.602303 L0.777420145,341.308218 C26.377645,331.496949 46.5511836,311.162299 56.1493333,285.45297 C74.6236264,235.968256 49.4847136,180.876596 -4.54747351e-13,162.402303 L-4.54747351e-13,162.402303 L-4.54747351e-13,56.0023029 L4,56.0023029 C34.927946,56.0023029 60,30.9302488 60,0.00230285663 L60,0.00230285663 L190.592963,0.00138620795 C190.531607,0.460312215 190.5,0.927862497 190.5,1.40230286 L190.5,1.40230286 L190.5,18.2023029 C190.5,24.3878921 195.872583,29.4023029 202.5,29.4023029 C209.127417,29.4023029 214.5,24.3878921 214.5,18.2023029 L214.5,18.2023029 L214.5,1.40230286 C214.5,0.927862497 214.468393,0.460312215 214.407037,0.00138620795 L214.407037,0.00138620795 L1270.59296,0.00138620795 Z M1282.5,396.202303 C1275.87258,396.202303 1270.5,401.216714 1270.5,407.402303 L1270.5,424.202303 C1270.5,430.387892 1275.87258,435.402303 1282.5,435.402303 C1289.12742,435.402303 1294.5,430.387892 1294.5,424.202303 L1294.5,407.402303 C1294.5,401.216714 1289.12742,396.202303 1282.5,396.202303 Z M202.5,396.202303 C195.872583,396.202303 190.5,401.216714 190.5,407.402303 L190.5,407.402303 L190.5,424.202303 C190.5,430.387892 195.872583,435.402303 202.5,435.402303 C209.127417,435.402303 214.5,430.387892 214.5,424.202303 L214.5,424.202303 L214.5,407.402303 C214.5,401.216714 209.127417,396.202303 202.5,396.202303 Z M1282.5,315.002303 C1275.87258,315.002303 1270.5,320.016714 1270.5,326.202303 L1270.5,343.002303 C1270.5,349.187892 1275.87258,354.202303 1282.5,354.202303 C1289.12742,354.202303 1294.5,349.187892 1294.5,343.002303 L1294.5,326.202303 C1294.5,320.016714 1289.12742,315.002303 1282.5,315.002303 Z M202.5,315.002303 C195.872583,315.002303 190.5,320.016714 190.5,326.202303 L190.5,326.202303 L190.5,343.002303 C190.5,349.187892 195.872583,354.202303 202.5,354.202303 C209.127417,354.202303 214.5,349.187892 214.5,343.002303 L214.5,343.002303 L214.5,326.202303 C214.5,320.016714 209.127417,315.002303 202.5,315.002303 Z M1282.5,233.802303 C1275.87258,233.802303 1270.5,238.816714 1270.5,245.002303 L1270.5,261.802303 C1270.5,267.987892 1275.87258,273.002303 1282.5,273.002303 C1289.12742,273.002303 1294.5,267.987892 1294.5,261.802303 L1294.5,245.002303 C1294.5,238.816714 1289.12742,233.802303 1282.5,233.802303 Z M202.5,233.802303 C195.872583,233.802303 190.5,238.816714 190.5,245.002303 L190.5,245.002303 L190.5,261.802303 C190.5,267.987892 195.872583,273.002303 202.5,273.002303 C209.127417,273.002303 214.5,267.987892 214.5,261.802303 L214.5,261.802303 L214.5,245.002303 C214.5,238.816714 209.127417,233.802303 202.5,233.802303 Z M1282.5,152.602303 C1275.87258,152.602303 1270.5,157.616714 1270.5,163.802303 L1270.5,180.602303 C1270.5,186.787892 1275.87258,191.802303 1282.5,191.802303 C1289.12742,191.802303 1294.5,186.787892 1294.5,180.602303 L1294.5,163.802303 C1294.5,157.616714 1289.12742,152.602303 1282.5,152.602303 Z M202.5,152.602303 C195.872583,152.602303 190.5,157.616714 190.5,163.802303 L190.5,163.802303 L190.5,180.602303 C190.5,186.787892 195.872583,191.802303 202.5,191.802303 C209.127417,191.802303 214.5,186.787892 214.5,180.602303 L214.5,180.602303 L214.5,163.802303 C214.5,157.616714 209.127417,152.602303 202.5,152.602303 Z M1282.5,71.4023029 C1275.87258,71.4023029 1270.5,76.4167137 1270.5,82.6023029 L1270.5,99.4023029 C1270.5,105.587892 1275.87258,110.602303 1282.5,110.602303 C1289.12742,110.602303 1294.5,105.587892 1294.5,99.4023029 L1294.5,82.6023029 C1294.5,76.4167137 1289.12742,71.4023029 1282.5,71.4023029 Z M202.5,71.4023029 C195.872583,71.4023029 190.5,76.4167137 190.5,82.6023029 L190.5,82.6023029 L190.5,99.4023029 C190.5,105.587892 195.872583,110.602303 202.5,110.602303 C209.127417,110.602303 214.5,105.587892 214.5,99.4023029 L214.5,99.4023029 L214.5,82.6023029 C214.5,76.4167137 209.127417,71.4023029 202.5,71.4023029 Z" id="path-1"></path>
        <filter id="filter-3">
            <feColorMatrix in="SourceGraphic" type="matrix" values="0 0 0 0 0.788235 0 0 0 0 0.580392 0 0 0 0 0.000000 0 0 0 1.000000 0"></feColorMatrix>
        </filter>
        <path d="M1270.59296,0.00138620796 C1270.53161,0.460312215 1270.5,0.927862497 1270.5,1.40230286 L1270.5,18.2023029 C1270.5,24.3878921 1275.87258,29.4023029 1282.5,29.4023029 C1289.12742,29.4023029 1294.5,24.3878921 1294.5,18.2023029 L1294.5,1.40230286 C1294.5,0.927862497 1294.46839,0.460312215 1294.40704,0.00138620796 L1425,0.00230285663 C1425,30.9302488 1450.07205,56.0023029 1481,56.0023029 L1485,56.0023029 L1485,162.402303 C1435.51529,180.876596 1410.37637,235.968256 1428.85067,285.45297 C1438.44882,311.162299 1458.62235,331.496949 1484.22258,341.308218 L1485,341.602303 L1485,448.002303 L1481,448.002303 C1450.38133,448.002303 1425.50203,472.575423 1425.0075,503.07624 L1425,504.002303 L214.5,504.001401 L214.5,488.602303 C214.5,482.416714 209.127417,477.402303 202.5,477.402303 C195.872583,477.402303 190.5,482.416714 190.5,488.602303 L190.5,488.602303 L190.5,504.001401 L60,504.002303 L59.9924976,503.07624 C59.4979733,472.575423 34.6186665,448.002303 4,448.002303 L4,448.002303 L-5.68434189e-13,448.002303 L-5.68434189e-13,341.602303 L0.777420145,341.308218 C26.377645,331.496949 46.5511836,311.162299 56.1493333,285.45297 C74.6236264,235.968256 49.4847136,180.876596 -5.68434189e-13,162.402303 L-5.68434189e-13,162.402303 L-5.68434189e-13,56.0023029 L4,56.0023029 C34.927946,56.0023029 60,30.9302488 60,0.00230285663 L60,0.00230285663 L190.592963,0.00138620796 C190.531607,0.460312215 190.5,0.927862497 190.5,1.40230286 L190.5,1.40230286 L190.5,18.2023029 C190.5,24.3878921 195.872583,29.4023029 202.5,29.4023029 C209.127417,29.4023029 214.5,24.3878921 214.5,18.2023029 L214.5,18.2023029 L214.5,1.40230286 C214.5,0.927862497 214.468393,0.460312215 214.407037,0.00138620796 L214.407037,0.00138620796 L1270.59296,0.00138620796 Z M202.5,396.202303 C195.872583,396.202303 190.5,401.216714 190.5,407.402303 L190.5,407.402303 L190.5,424.202303 C190.5,430.387892 195.872583,435.402303 202.5,435.402303 C209.127417,435.402303 214.5,430.387892 214.5,424.202303 L214.5,424.202303 L214.5,407.402303 C214.5,401.216714 209.127417,396.202303 202.5,396.202303 Z M202.5,315.002303 C195.872583,315.002303 190.5,320.016714 190.5,326.202303 L190.5,326.202303 L190.5,343.002303 C190.5,349.187892 195.872583,354.202303 202.5,354.202303 C209.127417,354.202303 214.5,349.187892 214.5,343.002303 L214.5,343.002303 L214.5,326.202303 C214.5,320.016714 209.127417,315.002303 202.5,315.002303 Z M1282.5,71.4023029 C1275.87258,71.4023029 1270.5,76.4167137 1270.5,82.6023029 L1270.5,99.4023029 C1270.5,105.587892 1275.87258,110.602303 1282.5,110.602303 C1289.12742,110.602303 1294.5,105.587892 1294.5,99.4023029 L1294.5,82.6023029 C1294.5,76.4167137 1289.12742,71.4023029 1282.5,71.4023029 Z" id="path-4"></path>
    </defs>
    <g id="eventravel_FullLogo" stroke="none" stroke-width="1" fill="none" fill-rule="evenodd">
        <g id="Group-7-Copy" transform="translate(67.066592, -1.488551)">
            <g id="Group-5" transform="translate(876.346584, 609.996147) rotate(-10.000000) translate(-876.346584, -609.996147) translate(91.846584, 129.496147)">
                <g id="Group-4" opacity="0.797238372" transform="translate(784.500000, 481.000000) scale(-1, -1) rotate(19.000000) translate(-784.500000, -481.000000) translate(42.000000, 229.000000)">
                    <g id="Group-3">
                        <g id="Rectangle">
                            <mask id="mask-2" fill="white">
                                <use xlink:href="#path-1"></use>
                            </mask>
                            <use id="Mask" fill="#FFD400" xlink:href="#path-1"></use>
                            <polygon fill="#F8C502" mask="url(#mask-2)" points="0 0.00230285663 1485 506.802303 0 506.802303"></polygon>
                        </g>
                        <g id="Group-2" transform="translate(48.000000, 45.000000)" stroke="#EEB000" stroke-linejoin="round" stroke-width="15">
                            <path d="M951,0 L1317,0 C1317,21.6286649 1334.5335,39.1621622 1356.16216,39.1621622 L1371,39.1621622 L1371,39.1621622 L1371,86.7162162" id="Path-2" stroke-linecap="round"></path>
                            <path d="M351,83.9189189 L1317,83.9189189 C1317,105.547584 1334.5335,123.081081 1356.16216,123.081081 L1371,123.081081 L1371,123.081081 L1371,167.837838 C1303.0242,223.614741 1293.13503,323.936132 1348.91194,391.911936 C1355.5328,399.980845 1362.93109,407.379132 1371,414 L1371,414 L1371,414" id="Path-2" transform="translate(861.000000, 248.959459) scale(1, -1) translate(-861.000000, -248.959459) "></path>
                            <path d="M0,0 L966,0 C966,21.6286649 983.533497,39.1621622 1005.16216,39.1621622 L1020,39.1621622 L1020,39.1621622 L1020,86.7162162" id="Path-2" stroke-linecap="round" transform="translate(510.000000, 43.358108) scale(-1, 1) translate(-510.000000, -43.358108) "></path>
                            <path d="M0,83.9189189 L366,83.9189189 C366,105.547584 383.533497,123.081081 405.162162,123.081081 L420,123.081081 L420,123.081081 L420,167.837838 C352.024196,223.614741 342.135033,323.936132 397.911936,391.911936 C404.532803,399.980845 411.93109,407.379132 420,414 L420,414 L420,414" id="Path-2" stroke-linecap="round" transform="translate(210.000000, 248.959459) scale(-1, -1) translate(-210.000000, -248.959459) "></path>
                        </g>
                    </g>
                    <text id="eventravel" font-family="SneakersPro-Medium, Sneakers Pro" font-size="141" font-weight="400" fill="#C99400">
                        <tspan x="312" y="251">eventravel</tspan>
                    </text>
                    <g filter="url(#filter-3)" id="Group">
                        <g transform="translate(546.000000, 315.000000)">
                            <path d="M33.2079532,55.4678658 L25.4198655,59.5623059 C22.5360507,61.078417 18.969206,59.9696742 17.4530948,57.0858594 C16.8493714,55.9375092 16.6410414,54.6221656 16.8603568,53.3434588 L18.3477492,44.6712957 C18.6815769,42.7249313 18.0362859,40.7389301 16.6221694,39.3605071 L10.3214741,33.2188471 C7.9884189,30.9446803 7.94068039,27.209789 10.2148471,24.8767339 C11.1204322,23.9476991 12.3070209,23.3431019 13.5909154,23.1565412 L22.2982623,21.8912896 C24.2525232,21.6073189 25.9419168,20.3799026 26.8158888,18.6090418 L30.7099327,10.7188471 C32.1518401,7.79722357 35.6891808,6.59767667 38.6108043,8.03958406 C39.7742101,8.61375914 40.7158922,9.55544126 41.2900673,10.7188471 L45.1841112,18.6090418 C46.0580832,20.3799026 47.7474768,21.6073189 49.7017377,21.8912896 L58.4090846,23.1565412 C61.6332875,23.6250453 63.8672228,26.6185758 63.3987187,29.8427787 C63.2121579,31.1266732 62.6075607,32.3132619 61.6785259,33.2188471 L55.3778306,39.3605071 C53.9637141,40.7389301 53.3184231,42.7249313 53.6522508,44.6712957 L55.1396432,53.3434588 C55.6904028,56.5546338 53.5337101,59.6042843 50.3225351,60.1550439 C49.0438284,60.3743593 47.7284847,60.1660293 46.5801345,59.5623059 L38.7920468,55.4678658 C37.0441026,54.5489172 34.9558974,54.5489172 33.2079532,55.4678658 Z" id="Star" fill="#FFFFFF"></path>
                            <path d="M114.207953,55.4678658 L106.419865,59.5623059 C103.536051,61.078417 99.969206,59.9696742 98.4530948,57.0858594 C97.8493714,55.9375092 97.6410414,54.6221656 97.8603568,53.3434588 L99.3477492,44.6712957 C99.6815769,42.7249313 99.0362859,40.7389301 97.6221694,39.3605071 L91.3214741,33.2188471 C88.9884189,30.9446803 88.9406804,27.209789 91.2148471,24.8767339 C92.1204322,23.9476991 93.3070209,23.3431019 94.5909154,23.1565412 L103.298262,21.8912896 C105.252523,21.6073189 106.941917,20.3799026 107.815889,18.6090418 L111.709933,10.7188471 C113.15184,7.79722357 116.689181,6.59767667 119.610804,8.03958406 C120.77421,8.61375914 121.715892,9.55544126 122.290067,10.7188471 L126.184111,18.6090418 C127.058083,20.3799026 128.747477,21.6073189 130.701738,21.8912896 L139.409085,23.1565412 C142.633287,23.6250453 144.867223,26.6185758 144.398719,29.8427787 C144.212158,31.1266732 143.607561,32.3132619 142.678526,33.2188471 L136.377831,39.3605071 C134.963714,40.7389301 134.318423,42.7249313 134.652251,44.6712957 L136.139643,53.3434588 C136.690403,56.5546338 134.53371,59.6042843 131.322535,60.1550439 C130.043828,60.3743593 128.728485,60.1660293 127.580135,59.5623059 L119.792047,55.4678658 C118.044103,54.5489172 115.955897,54.5489172 114.207953,55.4678658 Z" id="Star-Copy" fill="#FFFFFF"></path>
                            <path d="M195.207953,55.4678658 L187.419865,59.5623059 C184.536051,61.078417 180.969206,59.9696742 179.453095,57.0858594 C178.849371,55.9375092 178.641041,54.6221656 178.860357,53.3434588 L180.347749,44.6712957 C180.681577,42.7249313 180.036286,40.7389301 178.622169,39.3605071 L172.321474,33.2188471 C169.988419,30.9446803 169.94068,27.209789 172.214847,24.8767339 C173.120432,23.9476991 174.307021,23.3431019 175.590915,23.1565412 L184.298262,21.8912896 C186.252523,21.6073189 187.941917,20.3799026 188.815889,18.6090418 L192.709933,10.7188471 C194.15184,7.79722357 197.689181,6.59767667 200.610804,8.03958406 C201.77421,8.61375914 202.715892,9.55544126 203.290067,10.7188471 L207.184111,18.6090418 C208.058083,20.3799026 209.747477,21.6073189 211.701738,21.8912896 L220.409085,23.1565412 C223.633287,23.6250453 225.867223,26.6185758 225.398719,29.8427787 C225.212158,31.1266732 224.607561,32.3132619 223.678526,33.2188471 L217.377831,39.3605071 C215.963714,40.7389301 215.318423,42.7249313 215.652251,44.6712957 L217.139643,53.3434588 C217.690403,56.5546338 215.53371,59.6042843 212.322535,60.1550439 C211.043828,60.3743593 209.728485,60.1660293 208.580135,59.5623059 L200.792047,55.4678658 C199.044103,54.5489172 196.955897,54.5489172 195.207953,55.4678658 Z" id="Star-Copy-2" fill="#FFFFFF"></path>
                            <path d="M276.207953,55.4678658 L268.419865,59.5623059 C265.536051,61.078417 261.969206,59.9696742 260.453095,57.0858594 C259.849371,55.9375092 259.641041,54.6221656 259.860357,53.3434588 L261.347749,44.6712957 C261.681577,42.7249313 261.036286,40.7389301 259.622169,39.3605071 L253.321474,33.2188471 C250.988419,30.9446803 250.94068,27.209789 253.214847,24.8767339 C254.120432,23.9476991 255.307021,23.3431019 256.590915,23.1565412 L265.298262,21.8912896 C267.252523,21.6073189 268.941917,20.3799026 269.815889,18.6090418 L273.709933,10.7188471 C275.15184,7.79722357 278.689181,6.59767667 281.610804,8.03958406 C282.77421,8.61375914 283.715892,9.55544126 284.290067,10.7188471 L288.184111,18.6090418 C289.058083,20.3799026 290.747477,21.6073189 292.701738,21.8912896 L301.409085,23.1565412 C304.633287,23.6250453 306.867223,26.6185758 306.398719,29.8427787 C306.212158,31.1266732 305.607561,32.3132619 304.678526,33.2188471 L298.377831,39.3605071 C296.963714,40.7389301 296.318423,42.7249313 296.652251,44.6712957 L298.139643,53.3434588 C298.690403,56.5546338 296.53371,59.6042843 293.322535,60.1550439 C292.043828,60.3743593 290.728485,60.1660293 289.580135,59.5623059 L281.792047,55.4678658 C280.044103,54.5489172 277.955897,54.5489172 276.207953,55.4678658 Z" id="Star-Copy-3" fill="#FFFFFF"></path>
                            <path d="M357.207953,55.4678658 L349.419865,59.5623059 C346.536051,61.078417 342.969206,59.9696742 341.453095,57.0858594 C340.849371,55.9375092 340.641041,54.6221656 340.860357,53.3434588 L342.347749,44.6712957 C342.681577,42.7249313 342.036286,40.7389301 340.622169,39.3605071 L334.321474,33.2188471 C331.988419,30.9446803 331.94068,27.209789 334.214847,24.8767339 C335.120432,23.9476991 336.307021,23.3431019 337.590915,23.1565412 L346.298262,21.8912896 C348.252523,21.6073189 349.941917,20.3799026 350.815889,18.6090418 L354.709933,10.7188471 C356.15184,7.79722357 359.689181,6.59767667 362.610804,8.03958406 C363.77421,8.61375914 364.715892,9.55544126 365.290067,10.7188471 L369.184111,18.6090418 C370.058083,20.3799026 371.747477,21.6073189 373.701738,21.8912896 L382.409085,23.1565412 C385.633287,23.6250453 387.867223,26.6185758 387.398719,29.8427787 C387.212158,31.1266732 386.607561,32.3132619 385.678526,33.2188471 L379.377831,39.3605071 C377.963714,40.7389301 377.318423,42.7249313 377.652251,44.6712957 L379.139643,53.3434588 C379.690403,56.5546338 377.53371,59.6042843 374.322535,60.1550439 C373.043828,60.3743593 371.728485,60.1660293 370.580135,59.5623059 L362.792047,55.4678658 C361.044103,54.5489172 358.955897,54.5489172 357.207953,55.4678658 Z" id="Star-Copy-4" fill="#FFFFFF"></path>
                        </g>
                    </g>
                </g>
                <g id="Group-4" transform="translate(42.000000, 256.000000)">
                    <g id="Group-3">
                        <g id="Rectangle">
                            <mask id="mask-5" fill="white">
                                <use xlink:href="#path-4"></use>
                            </mask>
                            <use id="Mask" fill="#FFD400" xlink:href="#path-4"></use>
                            <polygon fill="#F8C502" mask="url(#mask-5)" points="0 0.00230285663 1485 506.802303 0 506.802303"></polygon>
                        </g>
                        <g id="Group-2" transform="translate(48.000000, 45.000000)" stroke="#EEB000" stroke-linejoin="round" stroke-width="15">
                            <path d="M951,0 L1317,0 C1317,21.6286649 1334.5335,39.1621622 1356.16216,39.1621622 L1371,39.1621622 L1371,39.1621622 L1371,86.7162162" id="Path-2" stroke-linecap="round"></path>
                            <path d="M351,83.9189189 L1317,83.9189189 C1317,105.547584 1334.5335,123.081081 1356.16216,123.081081 L1371,123.081081 L1371,123.081081 L1371,167.837838 C1303.0242,223.614741 1293.13503,323.936132 1348.91194,391.911936 C1355.5328,399.980845 1362.93109,407.379132 1371,414 L1371,414 L1371,414" id="Path-2" transform="translate(861.000000, 248.959459) scale(1, -1) translate(-861.000000, -248.959459) "></path>
                            <path d="M0,0 L966,0 C966,21.6286649 983.533497,39.1621622 1005.16216,39.1621622 L1020,39.1621622 L1020,39.1621622 L1020,86.7162162" id="Path-2" stroke-linecap="round" transform="translate(510.000000, 43.358108) scale(-1, 1) translate(-510.000000, -43.358108) "></path>
                            <path d="M0,83.9189189 L366,83.9189189 C366,105.547584 383.533497,123.081081 405.162162,123.081081 L420,123.081081 L420,123.081081 L420,167.837838 C352.024196,223.614741 342.135033,323.936132 397.911936,391.911936 C404.532803,399.980845 411.93109,407.379132 420,414 L420,414 L420,414" id="Path-2" stroke-linecap="round" transform="translate(210.000000, 248.959459) scale(-1, -1) translate(-210.000000, -248.959459) "></path>
                        </g>
                    </g>
                    <path d="M292.078336,268.391264 C300.538336,268.391264 307.447336,263.315264 307.447336,257.111264 L307.447336,250.766264 C307.447336,248.369264 305.614336,246.536264 303.217336,246.536264 L277.837336,246.536264 C275.440336,246.536264 273.607336,248.369264 273.607336,250.766264 C273.466336,255.137264 270.364336,258.521264 266.557336,258.521264 C262.609336,258.521264 259.507336,254.996264 259.507336,250.484264 L259.507336,236.666264 L292.078336,236.666264 C300.538336,236.666264 307.447336,231.590264 307.447336,225.386264 L307.447336,211.991264 C307.447336,205.787264 300.538336,200.711264 292.078336,200.711264 L241.036336,200.711264 C232.576336,200.711264 225.667336,205.787264 225.667336,211.991264 L225.667336,257.111264 C225.667336,263.315264 232.576336,268.391264 241.036336,268.391264 L292.078336,268.391264 Z M273.607336,228.206264 L259.507336,228.206264 L259.507336,218.618264 C259.507336,214.106264 262.609336,210.581264 266.557336,210.581264 C270.505336,210.581264 273.607336,214.106264 273.607336,218.618264 L273.607336,228.206264 Z M377.524336,268.391264 C379.780336,268.391264 381.895336,266.558264 382.600336,264.161264 L402.058336,204.941264 C402.622336,202.544264 401.071336,200.711264 398.815336,200.711264 L372.730336,200.711264 C370.333336,200.711264 368.077336,202.544264 367.513336,204.941264 L358.489336,247.100264 L349.324336,204.941264 C348.760336,202.544264 346.504336,200.711264 344.107336,200.711264 L318.022336,200.711264 C315.766336,200.711264 314.215336,202.544264 314.779336,204.941264 L334.237336,264.161264 C334.942336,266.558264 337.057336,268.391264 339.313336,268.391264 L377.524336,268.391264 Z M475.801336,268.391264 C484.261336,268.391264 491.170336,263.315264 491.170336,257.111264 L491.170336,250.766264 C491.170336,248.369264 489.337336,246.536264 486.940336,246.536264 L461.560336,246.536264 C459.163336,246.536264 457.330336,248.369264 457.330336,250.766264 C457.189336,255.137264 454.087336,258.521264 450.280336,258.521264 C446.332336,258.521264 443.230336,254.996264 443.230336,250.484264 L443.230336,236.666264 L475.801336,236.666264 C484.261336,236.666264 491.170336,231.590264 491.170336,225.386264 L491.170336,211.991264 C491.170336,205.787264 484.261336,200.711264 475.801336,200.711264 L424.759336,200.711264 C416.299336,200.711264 409.390336,205.787264 409.390336,211.991264 L409.390336,257.111264 C409.390336,263.315264 416.299336,268.391264 424.759336,268.391264 L475.801336,268.391264 Z M457.330336,228.206264 L443.230336,228.206264 L443.230336,218.618264 C443.230336,214.106264 446.332336,210.581264 450.280336,210.581264 C454.228336,210.581264 457.330336,214.106264 457.330336,218.618264 L457.330336,228.206264 Z M530.932336,268.391264 C533.329336,268.391264 535.162336,266.558264 535.162336,264.161264 L535.162336,218.618264 C535.162336,214.106264 538.264336,210.581264 542.212336,210.581264 C546.160336,210.581264 549.262336,214.106264 549.262336,218.618264 L549.262336,264.161264 C549.262336,266.558264 551.095336,268.391264 553.492336,268.391264 L578.872336,268.391264 C581.269336,268.391264 583.102336,266.558264 583.102336,264.161264 L583.102336,211.991264 C583.102336,205.787264 576.193336,200.711264 567.733336,200.711264 L545.032336,200.711264 C540.802336,200.711264 536.995336,201.980264 534.175336,203.954264 L530.932336,200.711264 L505.552336,200.711264 C503.155336,200.711264 501.322336,202.544264 501.322336,204.941264 L501.322336,264.161264 C501.322336,266.558264 503.155336,268.391264 505.552336,268.391264 L530.932336,268.391264 Z M656.845336,268.391264 C665.305336,268.391264 672.214336,263.315264 672.214336,257.111264 L672.214336,224.681264 C672.214336,222.284264 670.381336,220.451264 667.984336,220.451264 L645.424336,220.451264 C643.027336,220.451264 641.194336,222.284264 641.194336,224.681264 L641.194336,250.766264 C641.053336,255.137264 637.951336,258.521264 634.144336,258.521264 C630.196336,258.521264 627.094336,254.996264 627.094336,250.484264 L627.094336,212.696264 L659.242336,212.696264 C661.498336,212.696264 663.472336,210.722264 663.472336,208.466264 L663.472336,205.082264 C663.472336,202.685264 661.498336,200.852264 659.242336,200.852264 L627.094336,200.852264 L627.094336,191.969264 C627.094336,189.572264 625.261336,187.739264 622.864336,187.739264 L597.484336,187.739264 C595.087336,187.739264 593.254336,189.572264 593.254336,191.969264 L593.254336,257.111264 C593.254336,263.315264 600.163336,268.391264 608.623336,268.391264 L656.845336,268.391264 Z M711.835336,268.391264 C714.232336,268.391264 716.065336,266.558264 716.065336,264.161264 L716.065336,218.618264 C716.065336,214.106264 719.167336,210.581264 723.115336,210.581264 C727.063336,210.581264 730.165336,214.106264 730.165336,218.618264 L730.165336,222.284264 C730.165336,224.681264 731.998336,226.514264 734.395336,226.514264 L753.571336,226.514264 C755.827336,226.514264 757.801336,224.681264 757.801336,222.284264 L757.801336,211.991264 C757.801336,205.787264 750.892336,200.711264 742.432336,200.711264 L725.935336,200.711264 C721.705336,200.711264 717.898336,201.980264 715.078336,203.954264 L711.835336,200.711264 L686.455336,200.711264 C684.058336,200.711264 682.225336,202.544264 682.225336,204.941264 L682.225336,264.161264 C682.225336,266.558264 684.058336,268.391264 686.455336,268.391264 L711.835336,268.391264 Z M828.583336,268.391264 C837.043336,268.391264 843.952336,263.315264 843.952336,257.111264 L843.952336,211.991264 C843.952336,205.787264 837.043336,200.711264 828.583336,200.711264 L779.233336,200.711264 C770.773336,200.711264 764.005336,205.787264 764.005336,211.991264 L764.005336,219.041264 C764.005336,221.438264 765.838336,223.271264 768.235336,223.271264 L791.782336,223.271264 C794.179336,223.271264 796.012336,221.438264 796.012336,219.041264 L796.012336,218.618264 C796.012336,214.106264 799.114336,210.581264 803.062336,210.581264 C807.010336,210.581264 810.112336,214.106264 810.112336,218.618264 L810.112336,230.321264 L781.348336,230.321264 C770.773336,230.321264 762.172336,236.666264 762.172336,244.421264 L762.172336,257.111264 C762.172336,263.315264 769.081336,268.391264 777.541336,268.391264 L828.583336,268.391264 Z M803.062336,258.521264 C799.114336,258.521264 796.012336,254.996264 796.012336,250.484264 L796.012336,238.781264 L810.112336,238.781264 L810.112336,250.484264 C810.112336,254.996264 807.010336,258.521264 803.062336,258.521264 Z M914.029336,268.391264 C916.285336,268.391264 918.400336,266.558264 919.105336,264.161264 L938.563336,204.941264 C939.127336,202.544264 937.576336,200.711264 935.320336,200.711264 L909.235336,200.711264 C906.838336,200.711264 904.582336,202.544264 904.018336,204.941264 L894.994336,247.100264 L885.829336,204.941264 C885.265336,202.544264 883.009336,200.711264 880.612336,200.711264 L854.527336,200.711264 C852.271336,200.711264 850.720336,202.544264 851.284336,204.941264 L870.742336,264.161264 C871.447336,266.558264 873.562336,268.391264 875.818336,268.391264 L914.029336,268.391264 Z M1012.30634,268.391264 C1020.76634,268.391264 1027.67534,263.315264 1027.67534,257.111264 L1027.67534,250.766264 C1027.67534,248.369264 1025.84234,246.536264 1023.44534,246.536264 L998.065336,246.536264 C995.668336,246.536264 993.835336,248.369264 993.835336,250.766264 C993.694336,255.137264 990.592336,258.521264 986.785336,258.521264 C982.837336,258.521264 979.735336,254.996264 979.735336,250.484264 L979.735336,236.666264 L1012.30634,236.666264 C1020.76634,236.666264 1027.67534,231.590264 1027.67534,225.386264 L1027.67534,211.991264 C1027.67534,205.787264 1020.76634,200.711264 1012.30634,200.711264 L961.264336,200.711264 C952.804336,200.711264 945.895336,205.787264 945.895336,211.991264 L945.895336,257.111264 C945.895336,263.315264 952.804336,268.391264 961.264336,268.391264 L1012.30634,268.391264 Z M993.835336,228.206264 L979.735336,228.206264 L979.735336,218.618264 C979.735336,214.106264 982.837336,210.581264 986.785336,210.581264 C990.733336,210.581264 993.835336,214.106264 993.835336,218.618264 L993.835336,228.206264 Z M1078.71734,268.391264 L1078.71734,258.521264 C1074.76934,258.521264 1071.66734,254.996264 1071.66734,250.484264 L1071.66734,188.021264 C1071.66734,185.624264 1069.83434,183.791264 1067.43734,183.791264 L1042.05734,183.791264 C1039.66034,183.791264 1037.82734,185.624264 1037.82734,188.021264 L1037.82734,257.111264 C1037.82734,263.315264 1044.73634,268.391264 1053.19634,268.391264 L1078.71734,268.391264 Z" id="eventravel" fill="#C99400" fill-rule="nonzero"></path>
                    <g id="Group" transform="translate(554.000000, 322.000000)" fill="#C99400">
                        <path d="M30.6108043,1.03958406 C31.7742101,1.61375914 32.7158922,2.55544126 33.2900673,3.71884705 L37.1841112,11.6090418 C38.0580832,13.3799026 39.7474768,14.6073189 41.7017377,14.8912896 L50.4090846,16.1565412 C53.6332875,16.6250453 55.8672228,19.6185758 55.3987187,22.8427787 C55.2121579,24.1266732 54.6075607,25.3132619 53.6785259,26.2188471 L47.3778306,32.3605071 C45.9637141,33.7389301 45.3184231,35.7249313 45.6522508,37.6712957 L47.1396432,46.3434588 C47.6904028,49.5546338 45.5337101,52.6042843 42.3225351,53.1550439 C41.0438284,53.3743593 39.7284847,53.1660293 38.5801345,52.5623059 L30.7920468,48.4678658 C29.0441026,47.5489172 26.9558974,47.5489172 25.2079532,48.4678658 L17.4198655,52.5623059 C14.5360507,54.078417 10.969206,52.9696742 9.45309483,50.0858594 C8.84937142,48.9375092 8.64104145,47.6221656 8.86035681,46.3434588 L10.3477492,37.6712957 C10.6815769,35.7249313 10.0362859,33.7389301 8.62216943,32.3605071 L2.32147406,26.2188471 C-0.011581101,23.9446803 -0.0593196126,20.209789 2.21484711,17.8767339 C3.12043223,16.9476991 4.30702092,16.3431019 5.59091544,16.1565412 L14.2982623,14.8912896 C16.2525232,14.6073189 17.9419168,13.3799026 18.8158888,11.6090418 L22.7099327,3.71884705 C24.1518401,0.797223571 27.6891808,-0.40232333 30.6108043,1.03958406 Z M111.610804,1.03958406 C112.77421,1.61375914 113.715892,2.55544126 114.290067,3.71884705 L118.184111,11.6090418 C119.058083,13.3799026 120.747477,14.6073189 122.701738,14.8912896 L131.409085,16.1565412 C134.633287,16.6250453 136.867223,19.6185758 136.398719,22.8427787 C136.212158,24.1266732 135.607561,25.3132619 134.678526,26.2188471 L128.377831,32.3605071 C126.963714,33.7389301 126.318423,35.7249313 126.652251,37.6712957 L128.139643,46.3434588 C128.690403,49.5546338 126.53371,52.6042843 123.322535,53.1550439 C122.043828,53.3743593 120.728485,53.1660293 119.580135,52.5623059 L111.792047,48.4678658 C110.044103,47.5489172 107.955897,47.5489172 106.207953,48.4678658 L98.4198655,52.5623059 C95.5360507,54.078417 91.969206,52.9696742 90.4530948,50.0858594 C89.8493714,48.9375092 89.6410414,47.6221656 89.8603568,46.3434588 L91.3477492,37.6712957 C91.6815769,35.7249313 91.0362859,33.7389301 89.6221694,32.3605071 L83.3214741,26.2188471 C80.9884189,23.9446803 80.9406804,20.209789 83.2148471,17.8767339 C84.1204322,16.9476991 85.3070209,16.3431019 86.5909154,16.1565412 L95.2982623,14.8912896 C97.2525232,14.6073189 98.9419168,13.3799026 99.8158888,11.6090418 L103.709933,3.71884705 C105.15184,0.797223571 108.689181,-0.40232333 111.610804,1.03958406 Z M192.610804,1.03958406 C193.77421,1.61375914 194.715892,2.55544126 195.290067,3.71884705 L199.184111,11.6090418 C200.058083,13.3799026 201.747477,14.6073189 203.701738,14.8912896 L212.409085,16.1565412 C215.633287,16.6250453 217.867223,19.6185758 217.398719,22.8427787 C217.212158,24.1266732 216.607561,25.3132619 215.678526,26.2188471 L209.377831,32.3605071 C207.963714,33.7389301 207.318423,35.7249313 207.652251,37.6712957 L209.139643,46.3434588 C209.690403,49.5546338 207.53371,52.6042843 204.322535,53.1550439 C203.043828,53.3743593 201.728485,53.1660293 200.580135,52.5623059 L192.792047,48.4678658 C191.044103,47.5489172 188.955897,47.5489172 187.207953,48.4678658 L179.419865,52.5623059 C176.536051,54.078417 172.969206,52.9696742 171.453095,50.0858594 C170.849371,48.9375092 170.641041,47.6221656 170.860357,46.3434588 L172.347749,37.6712957 C172.681577,35.7249313 172.036286,33.7389301 170.622169,32.3605071 L164.321474,26.2188471 C161.988419,23.9446803 161.94068,20.209789 164.214847,17.8767339 C165.120432,16.9476991 166.307021,16.3431019 167.590915,16.1565412 L176.298262,14.8912896 C178.252523,14.6073189 179.941917,13.3799026 180.815889,11.6090418 L184.709933,3.71884705 C186.15184,0.797223571 189.689181,-0.40232333 192.610804,1.03958406 Z M273.610804,1.03958406 C274.77421,1.61375914 275.715892,2.55544126 276.290067,3.71884705 L280.184111,11.6090418 C281.058083,13.3799026 282.747477,14.6073189 284.701738,14.8912896 L293.409085,16.1565412 C296.633287,16.6250453 298.867223,19.6185758 298.398719,22.8427787 C298.212158,24.1266732 297.607561,25.3132619 296.678526,26.2188471 L290.377831,32.3605071 C288.963714,33.7389301 288.318423,35.7249313 288.652251,37.6712957 L290.139643,46.3434588 C290.690403,49.5546338 288.53371,52.6042843 285.322535,53.1550439 C284.043828,53.3743593 282.728485,53.1660293 281.580135,52.5623059 L273.792047,48.4678658 C272.044103,47.5489172 269.955897,47.5489172 268.207953,48.4678658 L260.419865,52.5623059 C257.536051,54.078417 253.969206,52.9696742 252.453095,50.0858594 C251.849371,48.9375092 251.641041,47.6221656 251.860357,46.3434588 L253.347749,37.6712957 C253.681577,35.7249313 253.036286,33.7389301 251.622169,32.3605071 L245.321474,26.2188471 C242.988419,23.9446803 242.94068,20.209789 245.214847,17.8767339 C246.120432,16.9476991 247.307021,16.3431019 248.590915,16.1565412 L257.298262,14.8912896 C259.252523,14.6073189 260.941917,13.3799026 261.815889,11.6090418 L265.709933,3.71884705 C267.15184,0.797223571 270.689181,-0.40232333 273.610804,1.03958406 Z M354.610804,1.03958406 C355.77421,1.61375914 356.715892,2.55544126 357.290067,3.71884705 L361.184111,11.6090418 C362.058083,13.3799026 363.747477,14.6073189 365.701738,14.8912896 L374.409085,16.1565412 C377.633287,16.6250453 379.867223,19.6185758 379.398719,22.8427787 C379.212158,24.1266732 378.607561,25.3132619 377.678526,26.2188471 L371.377831,32.3605071 C369.963714,33.7389301 369.318423,35.7249313 369.652251,37.6712957 L371.139643,46.3434588 C371.690403,49.5546338 369.53371,52.6042843 366.322535,53.1550439 C365.043828,53.3743593 363.728485,53.1660293 362.580135,52.5623059 L354.792047,48.4678658 C353.044103,47.5489172 350.955897,47.5489172 349.207953,48.4678658 L341.419865,52.5623059 C338.536051,54.078417 334.969206,52.9696742 333.453095,50.0858594 C332.849371,48.9375092 332.641041,47.6221656 332.860357,46.3434588 L334.347749,37.6712957 C334.681577,35.7249313 334.036286,33.7389301 332.622169,32.3605071 L326.321474,26.2188471 C323.988419,23.9446803 323.94068,20.209789 326.214847,17.8767339 C327.120432,16.9476991 328.307021,16.3431019 329.590915,16.1565412 L338.298262,14.8912896 C340.252523,14.6073189 341.941917,13.3799026 342.815889,11.6090418 L346.709933,3.71884705 C348.15184,0.797223571 351.689181,-0.40232333 354.610804,1.03958406 Z" id="Combined-Shape"></path>
                    </g>
                </g>
            </g>
            <path d="M294.719419,1069.91743 C294.906307,1074.05534 291.703364,1077.56129 287.565447,1077.74818 C276.187304,1078.26207 265.081818,1078.54477 254.261682,1078.59547 C250.119592,1078.61488 246.74603,1075.27279 246.72662,1071.1307 C246.707211,1066.9886 250.049303,1063.61504 254.191393,1063.59563 C264.806513,1063.54589 275.709942,1063.26834 286.888667,1062.76345 C291.026585,1062.57657 294.532532,1065.77951 294.719419,1069.91743 Z M183.109796,1060.03165 C193.509268,1061.21624 204.330081,1062.1068 215.555181,1062.70244 C219.691497,1062.92193 222.866715,1066.45301 222.647228,1070.58932 C222.427741,1074.72564 218.896665,1077.90086 214.760348,1077.68137 C203.238911,1077.07 192.117392,1076.15469 181.412142,1074.93527 C177.29662,1074.46648 174.340364,1070.75016 174.809158,1066.63463 C175.277952,1062.51911 178.994275,1059.56286 183.109796,1060.03165 Z M366.412875,1063.48474 C366.891466,1067.59913 363.944065,1071.32248 359.829671,1071.80107 C348.614215,1073.10567 337.59394,1074.22394 326.779133,1075.15475 C322.652255,1075.50994 319.018818,1072.45239 318.663626,1068.32551 C318.308434,1064.19863 321.36599,1060.56519 325.492869,1060.21 C336.156981,1059.29216 347.028348,1058.189 358.09654,1056.90153 C362.210934,1056.42294 365.934284,1059.37034 366.412875,1063.48474 Z M114.17945,1045.93682 C123.914346,1049.04928 134.313882,1051.75683 145.354496,1054.05442 C149.409751,1054.89834 152.013058,1058.8699 151.169144,1062.92515 C150.32523,1066.98041 146.353668,1069.58371 142.298413,1068.7398 C130.759384,1066.33848 119.856103,1063.49979 109.611417,1060.22434 C105.666029,1058.96291 103.490249,1054.74195 104.751676,1050.79656 C106.013104,1046.85117 110.234062,1044.67539 114.17945,1045.93682 Z M437.637593,1052.7125 C438.342184,1056.79427 435.60444,1060.67438 431.522671,1061.37897 C420.456335,1063.28923 409.533721,1065.04324 398.763417,1066.63967 C394.666048,1067.247 390.852133,1064.41777 390.2448,1060.3204 C389.637467,1056.22303 392.466701,1052.40911 396.56407,1051.80178 C407.215844,1050.22292 418.02108,1048.48777 428.971121,1046.59758 C433.05289,1045.89299 436.933002,1048.63073 437.637593,1052.7125 Z M508.171098,1038.48769 C509.060185,1042.53328 506.501333,1046.53362 502.455742,1047.42271 C491.527632,1049.82435 480.706628,1052.09128 470.000048,1054.22212 C465.937587,1055.03064 461.988879,1052.3928 461.180361,1048.33034 C460.371843,1044.26788 463.009685,1040.31917 467.072145,1039.51065 C477.680695,1037.39932 488.404454,1035.15276 499.236072,1032.77233 C503.281663,1031.88324 507.282011,1034.44209 508.171098,1038.48769 Z M53.0676198,1014.3158 C60.710066,1020.66337 69.4685542,1026.42673 79.3179444,1031.59061 C82.9864621,1033.51396 84.4012022,1038.04706 82.4778549,1041.71558 C80.5545075,1045.3841 76.0214052,1046.79884 72.3528875,1044.87549 C61.5968171,1039.23625 51.9598907,1032.89484 43.4837011,1025.8548 C40.2972945,1023.20827 39.8596348,1018.47974 42.5061609,1015.29334 C45.1526869,1012.10693 49.8812132,1011.66927 53.0676198,1014.3158 Z M578.086189,1021.35328 C579.132405,1025.36111 576.731542,1029.45823 572.723709,1030.50444 C561.938371,1033.31988 551.232482,1036.01714 540.612344,1038.59483 C536.587079,1039.57184 532.531941,1037.10073 531.55494,1033.07547 C530.577938,1029.0502 533.049044,1024.99506 537.074308,1024.01806 C547.61034,1021.46078 558.232685,1018.78457 568.935024,1015.9908 C572.942856,1014.94458 577.039972,1017.34545 578.086189,1021.35328 Z M647.379393,1001.6847 C648.563744,1005.65391 646.306172,1009.83169 642.336965,1011.01604 C631.680907,1014.19565 621.082858,1017.26985 610.548314,1020.23728 C606.561337,1021.36036 602.418821,1019.0387 601.295746,1015.05173 C600.172672,1011.06475 602.494324,1006.92223 606.481302,1005.79916 C616.941463,1002.85268 627.465548,999.799929 638.048052,996.642272 C642.017259,995.457921 646.195042,997.715493 647.379393,1001.6847 Z M715.962201,979.774826 C717.270935,983.704776 715.14602,987.951568 711.216071,989.260302 C700.672866,992.771353 690.170543,996.187033 679.713957,999.506001 C675.765924,1000.75912 671.549553,998.574468 670.296429,994.626435 C669.043305,990.678401 671.227962,986.46203 675.175995,985.208907 C685.565132,981.911347 696.000328,978.5175 706.476725,975.028697 C710.406674,973.719962 714.653466,975.844877 715.962201,979.774826 Z M17.5042576,958.441259 C19.0805486,965.079558 21.2892823,971.446458 24.1493909,977.579981 C25.6273915,980.745915 27.270886,983.826587 29.0792115,986.822278 C31.2198122,990.368419 30.0803966,994.978434 26.5342555,997.119035 C22.9881145,999.259635 18.3780995,998.12022 16.2374988,994.574079 C14.1547533,991.123781 12.2608054,987.573643 10.5561778,983.922265 C7.26317861,976.860405 4.72033306,969.530394 2.91005861,961.906711 C1.95310059,957.876634 4.44435557,953.833844 8.47443235,952.876886 C12.5045091,951.919928 16.5472996,954.411183 17.5042576,958.441259 Z M783.894847,955.797998 C785.318007,959.687973 783.318258,963.99512 779.428283,965.418279 C769.014826,969.228076 758.62797,972.951044 748.272009,976.585898 C744.363629,977.957706 740.083191,975.901408 738.711384,971.993029 C737.339576,968.084649 739.395873,963.804211 743.304253,962.432404 C753.597973,958.819396 763.922841,955.118645 774.274567,951.331434 C778.164541,949.908275 782.471688,951.908024 783.894847,955.797998 Z M851.101256,929.92136 C852.631363,933.770524 850.751396,938.131284 846.902232,939.661391 C836.620768,943.748445 826.353884,947.755847 816.105395,951.682372 C812.237432,953.164313 807.900478,951.23006 806.418537,947.362097 C804.936596,943.494134 806.870849,939.15718 810.738813,937.675239 C820.928953,933.771069 831.137695,929.786361 841.361225,925.722337 C845.210389,924.19223 849.571149,926.072197 851.101256,929.92136 Z M15.3488724,881.611137 C19.3430024,882.708503 21.6912936,886.835977 20.5939274,890.830107 C17.6332459,901.606224 15.7589098,911.972509 14.9772354,921.899536 C14.6520816,926.028889 11.0409898,929.112803 6.911636,928.787649 C2.78228223,928.462495 -0.301631187,924.851403 0.0235225926,920.72205 C0.881947272,909.820318 2.92484608,898.521773 6.12990293,886.856192 C7.22726909,882.862062 11.3547423,880.513771 15.3488724,881.611137 Z M917.57741,902.250104 C919.208907,906.057401 917.445073,910.466414 913.637777,912.09791 C903.46645,916.456512 893.299423,920.741211 883.140125,924.950837 C879.313492,926.536448 874.926,924.71974 873.340389,920.893107 C871.754778,917.066473 873.571486,912.678982 877.398119,911.093371 C887.501855,906.906768 897.613492,902.645412 907.729604,898.310471 C911.5369,896.678974 915.945913,898.442808 917.57741,902.250104 Z M983.290221,872.871494 C985.018849,876.635686 983.368838,881.088547 979.604756,882.817409 C969.564177,887.428577 959.518929,891.971133 949.472042,896.443849 C945.68795,898.128467 941.254685,896.426507 939.570067,892.642416 C937.885449,888.858324 939.587409,884.425059 943.3715,882.740441 C953.364973,878.291505 963.356953,873.773037 973.344361,869.186146 C977.108498,867.457401 981.561359,869.107412 983.290221,872.871494 Z M1048.23757,841.827857 C1050.06154,845.546782 1048.52538,850.04019 1044.80646,851.864165 C1034.92819,856.709036 1024.99663,861.508024 1015.01465,866.259459 C1011.2746,868.039725 1006.7995,866.451009 1005.01902,862.711066 C1003.23897,858.970918 1004.82769,854.495821 1008.56773,852.715556 C1018.49682,847.989301 1028.37561,843.215809 1038.20126,838.396746 C1041.92019,836.572771 1046.41359,838.108932 1048.23757,841.827857 Z M45.6045406,816.350939 C49.1987766,818.409763 50.4434741,822.992473 48.3846504,826.586709 C42.7788047,836.373235 37.8546168,845.952948 33.623411,855.305988 C31.9161328,859.079911 27.472742,860.755257 23.6988198,859.047978 C19.9248976,857.3407 18.2495516,852.89731 19.9568297,849.123387 C24.3895167,839.324975 29.5313208,829.321902 35.3687705,819.131049 C37.4275943,815.536813 42.0103046,814.292115 45.6045406,816.350939 Z M1112.46175,809.067247 C1114.38222,812.737272 1112.96393,817.269263 1109.2939,819.189732 C1099.55273,824.287137 1089.74819,829.342573 1079.8834,834.354145 C1076.19049,836.230239 1071.67593,834.757421 1069.79983,831.064514 C1067.92374,827.371607 1069.39656,822.857041 1073.08946,820.980947 C1082.90056,815.996654 1092.65153,810.968838 1102.33927,805.899393 C1106.0093,803.978924 1110.54129,805.397221 1112.46175,809.067247 Z M1175.67975,774.666809 C1177.69876,778.283561 1176.40353,782.852247 1172.78678,784.871255 C1163.19412,790.226241 1153.52646,795.543647 1143.78722,800.821307 C1140.14542,802.794783 1135.59334,801.442343 1133.61987,797.800547 C1131.64639,794.158751 1132.99883,789.606673 1136.64063,787.633197 C1146.32478,782.385387 1155.93748,777.098212 1165.47531,771.773837 C1169.09206,769.754829 1173.66075,771.050057 1175.67975,774.666809 Z M86.8278715,757.538115 C90.0960543,760.082966 90.6824304,764.795362 88.1375791,768.063545 C81.2380065,776.924205 74.7999396,785.674928 68.8334184,794.302816 C66.477444,797.709672 61.8057464,798.561581 58.3988897,796.205606 C54.9920331,793.849632 54.1401247,789.177934 56.4960991,785.771078 C62.6264266,776.906318 69.2319758,767.927951 76.302442,758.847823 C78.8472933,755.57964 83.5596886,754.993264 86.8278715,757.538115 Z M1504.22788,402.603437 L1504.34312,402.822197 L1554.82924,502.389598 L1636.62317,578.363748 C1639.77465,581.29104 1639.95639,586.21886 1637.0291,589.370342 C1636.71707,589.70626 1636.376,590.01397 1636.00985,590.289887 C1631.38411,593.775626 1625.29776,594.655512 1619.87421,592.622568 L1514.58948,553.15865 L1405.29908,656.073683 L1517.37323,769.500578 C1521.54889,773.726658 1521.50801,780.537613 1517.28193,784.713272 C1516.94097,785.050164 1516.57788,785.363891 1516.19507,785.652354 C1510.15197,790.206159 1502.0863,791.045377 1495.23516,787.833194 L1323.60134,707.362327 L1256.44944,744.385368 C1247.40474,749.372113 1236.06958,746.949297 1229.85384,738.700732 C1223.6381,730.452166 1224.43353,718.888293 1231.72016,711.568502 L1285.8152,657.228399 L1255.38378,467.652994 C1254.18447,460.181857 1257.21437,452.659954 1263.25748,448.106149 C1263.64028,447.817686 1264.04194,447.555131 1264.45976,447.320239 C1269.555,444.455796 1275.9857,446.188844 1278.96461,451.177695 L1279.1083,451.425668 L1358.95197,593.452362 L1494.55533,522.292062 L1486.02002,414.992066 C1485.56076,409.218257 1488.08419,403.610206 1492.70992,400.124467 C1493.07608,399.84855 1493.46588,399.605505 1493.87479,399.398162 C1497.63729,397.490342 1502.21794,398.928252 1504.22788,402.603437 Z M134.394019,703.372432 C137.411442,706.210114 137.557151,710.956616 134.719469,713.974039 C127.064595,722.113778 119.745935,730.19453 112.772,738.207065 C110.052573,741.331486 105.315199,741.659798 102.190778,738.940371 C99.0663575,736.220944 98.7380453,731.48357 101.457472,728.359149 C108.55946,720.19949 116.007287,711.976122 123.792411,703.697882 C126.630094,700.680458 131.376595,700.534749 134.394019,703.372432 Z M1628.80853,423.714413 C1631.99127,426.36535 1632.42238,431.094477 1629.77144,434.277216 C1622.85315,442.583381 1615.56488,450.962499 1607.91553,459.405155 C1605.13436,462.474749 1600.39138,462.708568 1597.32179,459.927403 C1594.2522,457.146238 1594.01838,452.403261 1596.79954,449.333666 C1604.31092,441.043294 1611.4626,432.821215 1618.24572,424.677327 C1620.89666,421.494588 1625.62579,421.063477 1628.80853,423.714413 Z M1670.92533,365.336231 C1674.40812,367.57843 1675.41382,372.219451 1673.17162,375.702242 C1667.34407,384.754125 1661.00062,393.935455 1654.15209,403.233481 C1651.69559,406.568585 1647.00058,407.280838 1643.66547,404.824343 C1640.33037,402.367847 1639.61811,397.672829 1642.07461,394.337725 C1648.74014,385.288156 1654.90517,376.36506 1660.55932,367.582522 C1662.80151,364.099731 1667.44254,363.094032 1670.92533,365.336231 Z M1702.67398,300.85967 C1706.54251,302.340139 1708.47841,306.676358 1706.99794,310.544884 C1703.15145,320.595915 1698.51498,330.883248 1693.10327,341.388292 C1691.20634,345.070542 1686.68353,346.517833 1683.00128,344.620908 C1679.31903,342.723982 1677.87174,338.201167 1679.76866,334.518918 C1684.93414,324.491874 1689.34457,314.706041 1692.98876,305.183629 C1694.46923,301.315102 1698.80545,299.3792 1702.67398,300.85967 Z M765.812296,289.398321 C767.518993,293.172506 765.842964,297.615639 762.068779,299.322336 C752.090233,303.834663 742.115174,308.415583 732.146618,313.063997 C728.392568,314.814539 723.930214,313.190375 722.179672,309.436326 C720.42913,305.682276 722.053294,301.219922 725.807344,299.46938 C735.82868,294.796355 745.856666,290.191129 755.888281,285.654803 C759.662466,283.948106 764.105599,285.624136 765.812296,289.398321 Z M831.861283,260.759774 C833.469883,264.5768 831.6796,268.97514 827.862573,270.58374 C817.774828,274.834993 807.681428,279.159864 797.585723,283.557196 C793.788182,285.21127 789.368773,283.473647 787.714698,279.676105 C786.060623,275.878563 787.798247,271.459155 791.595789,269.80508 C801.746217,265.383912 811.894512,261.03552 822.037317,256.761063 C825.854344,255.152463 830.252683,256.942747 831.861283,260.759774 Z M1720.71999,237.149146 C1721.18641,248.216333 1720.31237,259.751602 1718.12271,271.71769 C1717.37713,275.792171 1713.46969,278.490774 1709.39521,277.745189 C1705.32073,276.999605 1702.62213,273.09217 1703.36771,269.01769 C1705.36165,258.121194 1706.15131,247.699476 1705.7333,237.780742 C1705.55889,233.64228 1708.77239,230.146006 1712.91085,229.971595 C1717.04931,229.797185 1720.54558,233.010684 1720.71999,237.149146 Z M898.637667,233.871977 C900.143772,237.730595 898.236683,242.079563 894.378064,243.585668 C884.198878,247.558831 874.003642,251.611259 863.796083,255.741737 C859.956393,257.295464 855.584165,255.442325 854.030438,251.602635 C852.476711,247.762945 854.32985,243.390716 858.16954,241.836989 C868.434384,237.68333 878.687107,233.608053 888.923976,229.612374 C892.782595,228.106269 897.131562,230.013359 898.637667,233.871977 Z M966.138814,208.820634 C967.536478,212.719842 965.508575,217.013805 961.609366,218.411468 C951.336562,222.093734 941.035651,225.862023 930.710815,229.715066 C926.830098,231.16328 922.510146,229.191346 921.061932,225.310629 C919.613718,221.429912 921.585652,217.10996 925.466369,215.661747 C935.851983,211.786023 946.213913,207.995411 956.54798,204.291186 C960.447189,202.893523 964.741151,204.921426 966.138814,208.820634 Z M1693.88485,166.363042 C1700.32325,174.097107 1705.64865,182.448636 1709.83141,191.401874 C1710.65173,193.161059 1711.40205,194.878936 1712.11269,196.623973 C1713.67493,200.460207 1711.83149,204.836535 1707.99526,206.398776 C1704.15902,207.961017 1699.78269,206.117581 1698.22045,202.281347 C1697.60387,200.767262 1696.95289,199.276763 1696.23911,197.746109 C1692.60796,189.973603 1687.97758,182.712034 1682.35665,175.959958 C1679.70654,172.776536 1680.13887,168.047519 1683.32229,165.397404 C1686.50571,162.747289 1691.23473,163.17962 1693.88485,166.363042 Z M1034.38562,185.718753 C1035.6668,189.657772 1033.5122,193.889578 1029.57318,195.170757 C1019.20215,198.543966 1008.7887,202.011424 998.337555,205.571808 C994.416694,206.907524 990.155396,204.81185 988.81968,200.890989 C987.483964,196.970128 989.579638,192.708831 993.500499,191.373115 C1004.01718,187.790407 1014.49646,184.301028 1024.93362,180.906308 C1028.87264,179.625129 1033.10444,181.779734 1034.38562,185.718753 Z M1103.22049,164.779335 C1104.37461,168.757438 1102.08532,172.917924 1098.10722,174.072041 C1087.66744,177.1008 1077.16823,180.233264 1066.6149,183.468077 C1062.65463,184.681981 1058.46014,182.455613 1057.24623,178.495345 C1056.03233,174.535076 1058.25869,170.340581 1062.21896,169.126677 C1072.84407,165.869862 1083.41546,162.715866 1093.92779,159.666056 C1097.90589,158.511939 1102.06638,160.801233 1103.22049,164.779335 Z M1172.77848,146.181949 C1173.79071,150.198499 1171.35523,154.275132 1167.33868,155.287364 C1156.81978,157.938289 1146.22018,160.704972 1135.54601,163.586034 C1131.54698,164.665411 1127.43012,162.298565 1126.35074,158.299535 C1125.27137,154.300506 1127.63821,150.183645 1131.63724,149.104269 C1142.39195,146.201469 1153.07259,143.413632 1163.67306,140.74215 C1167.68961,139.729918 1171.76625,142.165399 1172.77848,146.181949 Z M1632.56695,123.168533 C1643.67978,127.883859 1653.814,133.226945 1662.93469,139.196234 C1666.40053,141.464548 1667.37132,146.112997 1665.103,149.578836 C1662.83469,153.044675 1658.18624,154.015461 1654.7204,151.747147 C1646.36892,146.28129 1637.02239,141.353498 1626.70786,136.976906 C1622.89479,135.358965 1621.11528,130.956256 1622.73322,127.143179 C1624.35116,123.330102 1628.75387,121.550592 1632.56695,123.168533 Z M1243.0484,130.246789 C1243.89794,134.300869 1241.30015,138.276039 1237.24607,139.125579 C1226.65208,141.345569 1215.95019,143.696698 1205.14749,146.177597 C1201.11045,147.104727 1197.08619,144.583644 1196.15906,140.5466 C1195.23193,136.509557 1197.75301,132.4853 1201.79006,131.55817 C1212.68571,129.055924 1223.48125,126.68422 1234.16961,124.444454 C1238.22369,123.594914 1242.19886,126.192708 1243.0484,130.246789 Z M1313.88868,117.450867 C1314.54566,121.54057 1311.76288,125.388512 1307.67318,126.045486 C1297.02555,127.755931 1286.23419,129.617392 1275.30744,131.628575 C1271.23373,132.378383 1267.3235,129.683832 1266.57369,125.610126 C1265.82389,121.536421 1268.51844,117.626191 1272.59214,116.876383 C1283.62994,114.84476 1294.53334,112.963973 1305.29406,111.23536 C1309.38377,110.578386 1313.23171,113.361163 1313.88868,117.450867 Z M1561.58243,103.54271 C1573.14217,105.443702 1584.13565,107.742865 1594.54196,110.439731 C1598.55163,111.478865 1600.95973,115.571734 1599.92059,119.581408 C1598.88146,123.591082 1594.78859,125.99918 1590.77892,124.960046 C1580.82185,122.379604 1570.27106,120.173023 1559.14838,118.343906 C1555.06115,117.671763 1552.29267,113.813522 1552.96481,109.726285 C1553.63695,105.639047 1557.49519,102.870566 1561.58243,103.54271 Z M1385.31982,108.45067 C1385.73853,112.571589 1382.73729,116.251682 1378.61637,116.670389 C1367.94499,117.754657 1357.08026,119.01689 1346.03219,120.455989 C1341.92476,120.991015 1338.1613,118.095005 1337.62627,113.987568 C1337.09124,109.880132 1339.98726,106.116672 1344.09469,105.581646 C1355.28164,104.124456 1366.28674,102.845915 1377.1001,101.747222 C1381.22102,101.328515 1384.90111,104.329751 1385.31982,108.45067 Z M1488.92071,97.0028013 C1500.41067,97.3138488 1511.53667,97.9083272 1522.28336,98.7865791 C1526.41173,99.123962 1529.48494,102.744172 1529.14756,106.872545 C1528.81017,111.000917 1525.18996,114.074122 1521.06159,113.736739 C1510.59114,112.881063 1499.7369,112.301104 1488.51479,111.997308 C1484.37417,111.885216 1481.10841,108.437713 1481.2205,104.297095 C1481.33259,100.156476 1484.78009,96.8907096 1488.92071,97.0028013 Z M1457.18949,104.314979 C1457.29584,108.455749 1454.02529,111.898718 1449.88452,112.005065 C1439.2548,112.278067 1428.35897,112.767314 1417.20935,113.472157 C1413.07547,113.733488 1409.51244,110.594164 1409.25111,106.46028 C1408.98978,102.326397 1412.12911,98.7633715 1416.26299,98.5020406 C1427.59725,97.785525 1438.68007,97.2878815 1449.49941,97.0100093 C1453.64018,96.9036623 1457.08314,100.174208 1457.18949,104.314979 Z" id="Combined-Shape" fill="#9D7330" fill-rule="nonzero"></path>
        </g>
    </g>
</svg>