<?xml version="1.0" encoding="UTF-8"?>
<svg width="1869px" height="261px" viewBox="0 0 1869 261" version="1.1" xmlns="http://www.w3.org/2000/svg" xmlns:xlink="http://www.w3.org/1999/xlink">
    <title>eventravel_Title</title>
    <defs>
        <path d="M137.537,35.32 C154.997,35.32 169.256,45.796 169.256,58.6 L169.256,58.6 L169.256,86.245 C169.256,99.049 154.997,109.525 137.537,109.525 L137.537,109.525 L70.316,109.525 L70.316,138.043 C70.316,147.355 76.718,154.63 84.866,154.63 C92.723,154.63 99.125,147.646 99.416,138.625 C99.416,133.678 103.199,129.895 108.146,129.895 L108.146,129.895 L160.526,129.895 C165.473,129.895 169.256,133.678 169.256,138.625 L169.256,138.625 L169.256,151.72 C169.256,164.524 154.997,175 137.537,175 L137.537,175 L32.195,175 C14.735,175 0.476,164.524 0.476,151.72 L0.476,151.72 L0.476,58.6 C0.476,45.796 14.735,35.32 32.195,35.32 L32.195,35.32 Z M244.916,35.32 C249.863,35.32 254.519,39.103 255.683,44.05 L255.683,44.05 L274.598,131.059 L293.222,44.05 C294.386,39.103 299.042,35.32 303.989,35.32 L303.989,35.32 L357.824,35.32 C362.48,35.32 365.681,39.103 364.517,44.05 L364.517,44.05 L324.359,166.27 C322.904,171.217 318.539,175 313.883,175 L313.883,175 L235.022,175 C230.366,175 226.001,171.217 224.546,166.27 L224.546,166.27 L184.388,44.05 C183.224,39.103 186.425,35.32 191.081,35.32 L191.081,35.32 Z M516.71,35.32 C534.17,35.32 548.429,45.796 548.429,58.6 L548.429,58.6 L548.429,86.245 C548.429,99.049 534.17,109.525 516.71,109.525 L516.71,109.525 L449.489,109.525 L449.489,138.043 C449.489,147.355 455.891,154.63 464.039,154.63 C471.896,154.63 478.298,147.646 478.589,138.625 C478.589,133.678 482.372,129.895 487.319,129.895 L487.319,129.895 L539.699,129.895 C544.646,129.895 548.429,133.678 548.429,138.625 L548.429,138.625 L548.429,151.72 C548.429,164.524 534.17,175 516.71,175 L516.71,175 L411.368,175 C393.908,175 379.649,164.524 379.649,151.72 L379.649,151.72 L379.649,58.6 C379.649,45.796 393.908,35.32 411.368,35.32 L411.368,35.32 Z M630.491,35.32 L637.184,42.013 C643.004,37.939 650.861,35.32 659.591,35.32 L659.591,35.32 L706.442,35.32 C723.902,35.32 738.161,45.796 738.161,58.6 L738.161,58.6 L738.161,166.27 C738.161,171.217 734.378,175 729.431,175 L729.431,175 L677.051,175 C672.104,175 668.321,171.217 668.321,166.27 L668.321,166.27 L668.321,72.277 C668.321,62.965 661.919,55.69 653.771,55.69 C645.623,55.69 639.221,62.965 639.221,72.277 L639.221,72.277 L639.221,166.27 C639.221,171.217 635.438,175 630.491,175 L630.491,175 L596,175 L596,173.5 C596,171.085727 594.098763,169.115511 591.711836,169.004898 L591.5,169 C589.014719,169 587,171.014719 587,173.5 L587,173.5 L587,175 L578.111,175 C573.253945,175 569.518948,171.353313 569.384736,166.538666 L569.381,166.27 L569.381,44.05 C569.381,39.103 573.164,35.32 578.111,35.32 L578.111,35.32 L587,35.32 L587,38.5 C587,40.9142733 588.901237,42.8844891 591.288164,42.995102 L591.5,43 C593.985281,43 596,40.9852814 596,38.5 L596,38.5 L596,35.32 L630.491,35.32 Z M820.223,8.548 C825.17,8.548 828.953,12.331 828.953,17.278 L828.953,17.278 L828.953,35.611 L895.301,35.611 C899.957,35.611 904.031,39.394 904.031,44.341 L904.031,44.341 L904.031,51.325 C904.031,55.981 899.957,60.055 895.301,60.055 L895.301,60.055 L828.953,60.055 L828.953,138.043 C828.953,147.355 835.355,154.63 843.503,154.63 C851.36,154.63 857.762,147.646 858.053,138.625 L858.053,138.625 L858.053,84.79 C858.053,79.843 861.836,76.06 866.783,76.06 L866.783,76.06 L913.343,76.06 C918.29,76.06 922.073,79.843 922.073,84.79 L922.073,84.79 L922.073,151.72 C922.073,164.524 907.814,175 890.354,175 L890.354,175 L790.832,175 C773.372,175 759.113,164.524 759.113,151.72 L759.113,151.72 L759.113,17.278 C759.113,12.331 762.896,8.548 767.843,8.548 L767.843,8.548 Z M1737.746,0.4 C1742.693,0.4 1746.476,4.183 1746.476,9.13 L1746.476,9.13 L1746.476,138.043 C1746.476,147.355 1752.878,154.63 1761.026,154.63 L1761.026,154.63 L1761.026,175 L1708.355,175 C1690.895,175 1676.636,164.524 1676.636,151.72 L1676.636,151.72 L1676.636,9.13 C1676.636,4.183 1680.419,0.4 1685.366,0.4 L1685.366,0.4 Z M1352.171,35.32 C1357.118,35.32 1361.774,39.103 1362.938,44.05 L1362.938,44.05 L1381.853,131.059 L1400.477,44.05 C1401.641,39.103 1406.297,35.32 1411.244,35.32 L1411.244,35.32 L1465.079,35.32 C1469.735,35.32 1472.936,39.103 1471.772,44.05 L1471.772,44.05 L1431.614,166.27 C1430.159,171.217 1425.794,175 1421.138,175 L1421.138,175 L1342.277,175 C1337.621,175 1333.256,171.217 1331.801,166.27 L1331.801,166.27 L1291.643,44.05 C1290.479,39.103 1293.68,35.32 1298.336,35.32 L1298.336,35.32 Z M1003.844,35.32 L1010.537,42.013 C1016.357,37.939 1024.214,35.32 1032.944,35.32 L1032.944,35.32 L1066.991,35.32 C1084.451,35.32 1098.71,45.796 1098.71,58.6 L1098.71,58.6 L1098.71,79.843 C1098.71,84.79 1094.636,88.573 1089.98,88.573 L1089.98,88.573 L1050.404,88.573 C1045.457,88.573 1041.674,84.79 1041.674,79.843 L1041.674,79.843 L1041.674,72.277 C1041.674,62.965 1035.272,55.69 1027.124,55.69 C1018.976,55.69 1012.574,62.965 1012.574,72.277 L1012.574,72.277 L1012.574,166.27 C1012.574,171.217 1008.791,175 1003.844,175 L1003.844,175 L951.464,175 C946.517,175 942.734,171.217 942.734,166.27 L942.734,166.27 L942.734,44.05 C942.734,39.103 946.517,35.32 951.464,35.32 L951.464,35.32 L1003.844,35.32 Z M1244.792,35.32 C1262.252,35.32 1276.511,45.796 1276.511,58.6 L1276.511,58.6 L1276.511,151.72 C1276.511,164.524 1262.252,175 1244.792,175 L1244.792,175 L1139.45,175 C1121.99,175 1107.731,164.524 1107.731,151.72 L1107.731,151.72 L1107.731,125.53 C1107.731,109.525 1125.482,96.43 1147.307,96.43 L1147.307,96.43 L1206.671,96.43 L1206.671,72.277 C1206.671,62.965 1200.269,55.69 1192.121,55.69 C1183.973,55.69 1177.571,62.965 1177.571,72.277 L1177.571,72.277 L1177.571,73.15 C1177.571,78.097 1173.788,81.88 1168.841,81.88 L1168.841,81.88 L1120.244,81.88 C1115.297,81.88 1111.514,78.097 1111.514,73.15 L1111.514,73.15 L1111.514,58.6 C1111.514,45.796 1125.482,35.32 1142.942,35.32 L1142.942,35.32 Z M1623.965,35.32 C1641.425,35.32 1655.684,45.796 1655.684,58.6 L1655.684,58.6 L1655.684,86.245 C1655.684,99.049 1641.425,109.525 1623.965,109.525 L1623.965,109.525 L1556.744,109.525 L1556.744,138.043 C1556.744,147.355 1563.146,154.63 1571.294,154.63 C1579.151,154.63 1585.553,147.646 1585.844,138.625 C1585.844,133.678 1589.627,129.895 1594.574,129.895 L1594.574,129.895 L1646.954,129.895 C1651.901,129.895 1655.684,133.678 1655.684,138.625 L1655.684,138.625 L1655.684,151.72 C1655.684,164.524 1641.425,175 1623.965,175 L1623.965,175 L1523,175 L1523,173.5 C1523,171.085727 1521.09876,169.115511 1518.71184,169.004898 L1518.5,169 C1516.01472,169 1514,171.014719 1514,173.5 L1514,173.5 L1514.00063,174.752021 C1498.71496,173.098002 1486.904,163.373161 1486.904,151.72 L1486.904,151.72 L1486.904,58.6 C1486.904,46.9468387 1498.71496,37.2219977 1514.00063,35.5679787 L1514,38.5 C1514,40.9852814 1516.01472,43 1518.5,43 C1520.98528,43 1523,40.9852814 1523,38.5 L1523,38.5 L1523,35.32 Z M1518.5,145 C1516.01472,145 1514,147.014719 1514,149.5 L1514,149.5 L1514,158.5 C1514,160.985281 1516.01472,163 1518.5,163 C1520.98528,163 1523,160.985281 1523,158.5 L1523,158.5 L1523,149.5 C1523,147.014719 1520.98528,145 1518.5,145 Z M591.5,145 C589.014719,145 587,147.014719 587,149.5 L587,149.5 L587,158.5 C587,160.985281 589.014719,163 591.5,163 C593.985281,163 596,160.985281 596,158.5 L596,158.5 L596,149.5 C596,147.014719 593.985281,145 591.5,145 Z M1206.671,113.89 L1177.571,113.89 L1177.571,138.043 C1177.571,147.355 1183.973,154.63 1192.121,154.63 C1200.269,154.63 1206.671,147.355 1206.671,138.043 L1206.671,138.043 L1206.671,113.89 Z M591.5,121 C589.014719,121 587,123.014719 587,125.5 L587,125.5 L587,134.5 C587,136.985281 589.014719,139 591.5,139 C593.985281,139 596,136.985281 596,134.5 L596,134.5 L596,125.5 C596,123.014719 593.985281,121 591.5,121 Z M1518.5,121 C1516.01472,121 1514,123.014719 1514,125.5 L1514,125.5 L1514,134.5 C1514,136.985281 1516.01472,139 1518.5,139 C1520.98528,139 1523,136.985281 1523,134.5 L1523,134.5 L1523,125.5 C1523,123.014719 1520.98528,121 1518.5,121 Z M591.5,97 C589.014719,97 587,99.0147186 587,101.5 L587,101.5 L587,110.5 C587,112.985281 589.014719,115 591.5,115 C593.985281,115 596,112.985281 596,110.5 L596,110.5 L596,101.5 C596,99.0147186 593.985281,97 591.5,97 Z M1518.5,97 C1516.01472,97 1514,99.0147186 1514,101.5 L1514,101.5 L1514,110.5 C1514,112.985281 1516.01472,115 1518.5,115 C1520.98528,115 1523,112.985281 1523,110.5 L1523,110.5 L1523,101.5 C1523,99.0147186 1520.98528,97 1518.5,97 Z M84.866,55.69 C76.718,55.69 70.316,62.965 70.316,72.277 L70.316,72.277 L70.316,92.065 L99.416,92.065 L99.416,72.277 C99.416,62.965 93.014,55.69 84.866,55.69 Z M464.039,55.69 C455.891,55.69 449.489,62.965 449.489,72.277 L449.489,72.277 L449.489,92.065 L478.589,92.065 L478.589,72.277 C478.589,62.965 472.187,55.69 464.039,55.69 Z M1571.294,55.69 C1563.146,55.69 1556.744,62.965 1556.744,72.277 L1556.744,72.277 L1556.744,92.065 L1585.844,92.065 L1585.844,72.277 C1585.844,62.965 1579.442,55.69 1571.294,55.69 Z M591.5,73 C589.014719,73 587,75.0147186 587,77.5 L587,77.5 L587,86.5 C587,88.9852814 589.014719,91 591.5,91 C593.985281,91 596,88.9852814 596,86.5 L596,86.5 L596,77.5 C596,75.0147186 593.985281,73 591.5,73 Z M1518.5,73 C1516.01472,73 1514,75.0147186 1514,77.5 L1514,77.5 L1514,86.5 C1514,88.9852814 1516.01472,91 1518.5,91 C1520.98528,91 1523,88.9852814 1523,86.5 L1523,86.5 L1523,77.5 C1523,75.0147186 1520.98528,73 1518.5,73 Z M591.5,49 C589.014719,49 587,51.0147186 587,53.5 L587,53.5 L587,62.5 C587,64.9852814 589.014719,67 591.5,67 C593.985281,67 596,64.9852814 596,62.5 L596,62.5 L596,53.5 C596,51.0147186 593.985281,49 591.5,49 Z M1518.5,49 C1516.01472,49 1514,51.0147186 1514,53.5 L1514,53.5 L1514,62.5 C1514,64.9852814 1516.01472,67 1518.5,67 C1520.98528,67 1523,64.9852814 1523,62.5 L1523,62.5 L1523,53.5 C1523,51.0147186 1520.98528,49 1518.5,49 Z" id="path-1"></path>
    </defs>
    <g id="eventravel_Title" stroke="none" stroke-width="1" fill="none" fill-rule="evenodd">
        <g id="Group-6-Copy" transform="translate(55.000000, 44.000000)">
            <mask id="mask-2" fill="white">
                <use xlink:href="#path-1"></use>
            </mask>
            <use id="Combined-Shape" fill="#FFD400" fill-rule="nonzero" xlink:href="#path-1"></use>
            <polygon id="Rectangle" fill="#F8C502" mask="url(#mask-2)" points="-88 34 1871 175 -88 175"></polygon>
        </g>
    </g>
</svg>